HIERARCHY
ROOT Hips
{
 OFFSET 0.000000 0.000000 0.000000
 CHANNELS 6 Xposition Yposition Zposition Yrotation Xrotation Zrotation
 JOINT Chest
 {
  OFFSET 0.000000 9.585900 0.002600
  CHANNELS 3 Yrotation Xrotation Zrotation
  JOINT Chest2
  {
   OFFSET 0.000000 9.601200 -0.005300
   CHANNELS 3 Yrotation Xrotation Zrotation
   JOINT Chest3
   {
    OFFSET 0.000000 9.561800 0.000000
    CHANNELS 3 Yrotation Xrotation Zrotation
    JOINT Chest4
    {
     OFFSET 0.000000 9.552100 0.000000
     CHANNELS 3 Yrotation Xrotation Zrotation
     JOINT Neck
     {
      OFFSET 0.000000 14.453000 0.000000
      CHANNELS 3 Yrotation Xrotation Zrotation
      JOINT Head
      {
       OFFSET 0.000000 8.936500 -0.011300
       CHANNELS 3 Yrotation Xrotation Zrotation
       End Site
       {
        OFFSET 0.000000 17.073600 -0.006000
       }
      }
     }
     JOINT RightCollar
     {
      OFFSET -2.921100 9.558500 0.000000
      CHANNELS 3 Yrotation Xrotation Zrotation
      JOINT RightShoulder
      {
       OFFSET -13.519700 0.000000 0.000000
       CHANNELS 3 Yrotation Xrotation Zrotation
       JOINT RightElbow
       {
        OFFSET 0.000000 -29.696600 0.000000
        CHANNELS 3 Yrotation Xrotation Zrotation
        JOINT RightWrist
        {
         OFFSET 0.000000 -24.004700 0.000000
         CHANNELS 3 Yrotation Xrotation Zrotation
         End Site
         {
          OFFSET 0.000000 -17.728500 0.000000
         }
        }
       }
      }
     }
     JOINT LeftCollar
     {
      OFFSET 2.921100 9.558500 0.000000
      CHANNELS 3 Yrotation Xrotation Zrotation
      JOINT LeftShoulder
      {
       OFFSET 13.519700 0.000000 0.000000
       CHANNELS 3 Yrotation Xrotation Zrotation
       JOINT LeftElbow
       {
        OFFSET 0.000000 -29.696600 0.000000
        CHANNELS 3 Yrotation Xrotation Zrotation
        JOINT LeftWrist
        {
         OFFSET 0.000000 -24.004700 0.000000
         CHANNELS 3 Yrotation Xrotation Zrotation
         End Site
         {
          OFFSET 0.000000 -17.728500 0.000000
         }
        }
       }
      }
     }
    }
   }
  }
 }
 JOINT RightHip
 {
  OFFSET -7.771700 -0.012900 -0.001300
  CHANNELS 3 Yrotation Xrotation Zrotation
  JOINT RightKnee
  {
   OFFSET 0.000000 -40.869800 0.001200
   CHANNELS 3 Yrotation Xrotation Zrotation
   JOINT RightAnkle
   {
    OFFSET 0.000000 -39.717900 0.002100
    CHANNELS 3 Yrotation Xrotation Zrotation
    JOINT RightToe
    {
     OFFSET 0.000000 -4.965400 11.033500
     CHANNELS 3 Yrotation Xrotation Zrotation
     End Site
     {
      OFFSET 0.000000 -1.423100 5.872300
     }
    }
   }
  }
 }
 JOINT LeftHip
 {
  OFFSET 7.771700 -0.012900 -0.001300
  CHANNELS 3 Yrotation Xrotation Zrotation
  JOINT LeftKnee
  {
   OFFSET 0.000000 -40.869800 0.001200
   CHANNELS 3 Yrotation Xrotation Zrotation
   JOINT LeftAnkle
   {
    OFFSET 0.000000 -39.717900 0.002100
    CHANNELS 3 Yrotation Xrotation Zrotation
    JOINT LeftToe
    {
     OFFSET 0.000000 -4.965400 11.033500
     CHANNELS 3 Yrotation Xrotation Zrotation
     End Site
     {
      OFFSET 0.000000 -1.423100 5.872300
     }
    }
   }
  }
 }
}
MOTION
Frames: 11
Frame Time: 0.008333
0.000000 85.388000 0.000000 0.000000 -5.767877 0.000000 0.000000 11.653817 0.000000 0.000000 -5.885947 0.000000 0.000000 -0.000000 0.000000 0.000000 -0.000000 0.000000 0.000000 12.528835 0.000000 0.000000 0.711642 0.000000 0.000000 -0.000000 0.000000 0.000000 0.000000 -90.000000 0.000000 -2.309062 0.000000 0.000000 2.309062 0.000000 0.000000 -0.000000 0.000000 0.000000 -0.000000 90.000000 0.000000 -2.309062 0.000000 0.000000 2.309062 0.000000 0.000000 8.520406 0.000000 0.000000 1.905762 0.000000 -0.000000 -4.658285 0.000000 0.000000 -0.000000 0.000000 0.000000 8.520406 0.000000 0.000000 1.905762 0.000000 -0.000000 -4.658285 0.000000 0.000000 -0.000000 0.000000
-32.277583 50.644659 19.926598 164.655139 -6.964640 -0.297637 2.468629 6.209308 0.726765 0.090770 0.250999 -0.009177 0.163160 0.437940 -0.012648 2.228275 5.956779 -0.065227 1.428117 18.768740 0.112529 2.581481 -0.930961 -0.247116 2.209404 6.685140 1.101947 -6.466041 -9.819745 -8.209164 18.527878 -83.598134 3.042679 0.480812 1.779233 -30.832627 -3.751250 3.041690 -0.639248 16.905998 -4.518173 2.864024 0.297186 -85.684209 -23.274707 2.915398 -0.793244 20.421921 -8.295709 -72.812583 0.980832 -143.552075 83.205380 -141.735800 -4.220981 -17.293301 -1.327455 -0.229578 0.696738 -0.112371 -5.493984 -78.007744 22.765163 99.737599 78.667488 95.524127 -16.086932 -22.018062 2.714087 -0.337397 -1.199836 -0.135454
-32.280128 50.644646 19.925552 164.660861 -6.965269 -0.285437 2.458797 6.213416 0.710368 0.091649 0.249071 -0.009134 0.163661 0.438268 -0.011997 2.215863 5.963824 -0.065394 1.403798 18.761303 0.102505 2.578220 -0.942519 -0.255323 2.218497 6.683061 1.098094 -6.470076 -9.813372 -8.200935 18.539785 -83.597987 3.034703 0.474623 1.792799 -30.841106 -3.739185 3.028549 -0.637802 16.901900 -4.523255 2.877820 0.186174 -85.703359 -23.162775 2.936132 -0.784782 20.430882 -8.263715 -72.813813 0.939803 -143.543818 83.201480 -141.726935 -4.226222 -17.301888 -1.331542 -0.230617 0.700962 -0.105804 -5.454410 -78.008531 22.720177 99.742349 78.667994 95.526985 -16.127472 -22.000739 2.723636 -0.292621 -1.209493 -0.131235
-32.277455 50.644643 19.925542 164.659209 -6.968479 -0.304897 2.462281 6.216197 0.727815 0.090955 0.248683 -0.008464 0.164388 0.438503 -0.011417 2.214461 5.964257 -0.065188 1.387195 18.762047 0.099371 2.562132 -0.948906 -0.261074 2.219425 6.689214 1.094049 -6.478708 -9.808497 -8.190890 18.541439 -83.594169 3.035558 0.478904 1.786888 -30.836003 -3.737477 3.026118 -0.637101 16.897375 -4.531621 2.887941 0.251809 -85.706642 -23.221343 2.935139 -0.786552 20.430602 -8.335327 -72.806405 1.018193 -143.502327 83.199149 -141.684338 -4.231989 -17.298111 -1.336478 -0.224364 0.695069 -0.102501 -5.557391 -78.005347 22.823609 99.757357 78.661205 95.536922 -16.094059 -21.994913 2.721490 -0.315060 -1.214978 -0.138177
-32.276680 50.644547 19.925078 164.660222 -6.971773 -0.313987 2.459284 6.218075 0.734325 0.092283 0.249336 -0.007263 0.162381 0.438544 -0.012596 2.208452 5.968419 -0.065040 1.378777 18.760254 0.098854 2.547880 -0.952055 -0.266606 2.226008 6.691493 1.092359 -6.480376 -9.809007 -8.185112 18.495757 -83.582689 3.079206 0.478735 1.786107 -30.834434 -3.732684 3.019298 -0.632795 16.898999 -4.539725 2.892053 0.317532 -85.700977 -23.281678 2.930137 -0.789873 20.436082 -8.370242 -72.797409 1.052513 -143.449225 83.197874 -141.629997 -4.228469 -17.305944 -1.339198 -0.222823 0.700290 -0.101616 -5.604113 -78.002149 22.869733 99.758673 78.659350 95.538569 -16.098293 -21.984758 2.724312 -0.325098 -1.217544 -0.142984
-32.276685 50.644329 19.924772 164.673140 -6.973577 -0.321404 2.441338 6.219995 0.736597 0.092062 0.249346 -0.007164 0.162050 0.438564 -0.012395 2.194012 5.974710 -0.061424 1.382930 18.757179 0.095168 2.511172 -0.953031 -0.265608 2.244038 6.690693 1.087031 -6.484142 -9.809921 -8.178979 18.473006 -83.574957 3.105658 0.477576 1.790458 -30.839182 -3.734068 3.001681 -0.638820 16.916485 -4.542763 2.900149 0.346020 -85.695505 -23.303109 2.933899 -0.794105 20.442312 -8.398079 -72.792771 1.070303 -143.454647 83.194327 -141.637718 -4.224511 -17.312735 -1.332905 -0.230278 0.701828 -0.104921 -5.646345 -78.001022 22.897435 99.736970 78.656047 95.515615 -16.093440 -21.968302 2.726542 -0.318262 -1.213220 -0.144260
-32.276864 50.643931 19.925755 164.683139 -6.968535 -0.330795 2.426722 6.216148 0.741154 0.091953 0.249470 -0.007077 0.161592 0.438812 -0.012220 2.194642 5.978887 -0.058392 1.376497 18.756715 0.094227 2.492929 -0.953712 -0.264379 2.237016 6.696182 1.082778 -6.482087 -9.814120 -8.172381 18.465095 -83.570494 3.123690 0.469888 1.800654 -30.834013 -3.735606 2.992829 -0.641570 16.915903 -4.550826 2.902721 0.359538 -85.704297 -23.306665 2.942215 -0.791657 20.448245 -8.436009 -72.795659 1.100559 -143.439011 83.191413 -141.621638 -4.223665 -17.314256 -1.330391 -0.230129 0.701063 -0.106832 -5.699702 -78.009395 22.936914 99.713933 78.649145 95.493794 -16.082871 -21.940999 2.725066 -0.322748 -1.229518 -0.147148
-32.276584 50.643680 19.926007 164.684780 -6.969488 -0.342129 2.421039 6.220548 0.743012 0.091793 0.249934 -0.006743 0.162660 0.439917 -0.011008 2.193611 5.978338 -0.051070 1.372066 18.757996 0.094590 2.487766 -0.955114 -0.264472 2.241506 6.693156 1.081178 -6.482693 -9.812563 -8.170909 18.458481 -83.569158 3.132603 0.468664 1.802159 -30.833520 -3.731538 2.986798 -0.642889 16.910652 -4.558965 2.900244 0.332549 -85.714513 -23.266182 2.948382 -0.792469 20.454409 -8.466653 -72.793163 1.135391 -143.404403 83.187881 -141.586254 -4.224433 -17.312306 -1.331838 -0.227842 0.698293 -0.103313 -5.738936 -78.009393 22.974972 99.692301 78.646541 95.477789 -16.086117 -21.927356 2.720980 -0.306105 -1.234879 -0.142261
-32.277142 50.643540 19.925749 164.680053 -6.972985 -0.348643 2.422615 6.223641 0.746242 0.093381 0.250223 -0.004925 0.163818 0.440393 -0.010340 2.187838 5.980754 -0.049888 1.370013 18.761629 0.096018 2.491429 -0.959742 -0.267967 2.239310 6.695218 1.080148 -6.475412 -9.819344 -8.169921 18.454226 -83.562726 3.140643 0.468188 1.805983 -30.834958 -3.737802 2.984494 -0.651735 16.919354 -4.569918 2.901339 0.415804 -85.733715 -23.342734 2.951336 -0.781224 20.457341 -8.461531 -72.790388 1.136457 -143.407571 83.185789 -141.582868 -4.219513 -17.307803 -1.333386 -0.234317 0.693681 -0.103225 -5.761819 -78.005677 23.001986 99.681132 78.644836 95.468063 -16.088244 -21.916062 2.719619 -0.366167 -1.221205 -0.149663
-32.281450 50.643461 19.925424 164.683372 -6.971540 -0.336007 2.414625 6.222966 0.728273 0.094362 0.249346 -0.001683 0.161178 0.439946 -0.011243 2.189905 5.983077 -0.047902 1.369429 18.763905 0.097009 2.482804 -0.948076 -0.261616 2.233262 6.699442 1.072154 -6.464656 -9.820608 -8.158094 18.463265 -83.560117 3.138752 0.468874 1.812353 -30.840518 -3.758307 2.978814 -0.666789 16.940306 -4.576001 2.909603 0.402536 -85.737926 -23.331421 2.950969 -0.792696 20.477047 -8.412493 -72.793197 1.081026 -143.415273 83.186354 -141.587380 -4.222669 -17.316249 -1.334918 -0.228491 0.700085 -0.101491 -5.699904 -78.008609 22.938671 99.659084 78.646659 95.450626 -16.150041 -21.888568 2.728415 -0.312182 -1.228699 -0.140800
-32.282271 50.643623 19.925989 164.683197 -6.970904 -0.345919 2.413155 6.222475 0.733706 0.094919 0.249713 -0.001727 0.161194 0.440294 -0.011176 2.190778 5.983559 -0.045058 1.369027 18.765979 0.098660 2.477869 -0.936863 -0.253540 2.229294 6.699311 1.068535 -6.458630 -9.822149 -8.152552 18.462695 -83.557915 3.142689 0.474088 1.815138 -30.845039 -3.765322 2.974361 -0.671562 16.947533 -4.580329 2.908744 0.626867 -85.761852 -23.558745 2.947274 -0.778648 20.488500 -8.440751 -72.791285 1.110348 -143.399614 83.186923 -141.570832 -4.216181 -17.315923 -1.335453 -0.231820 0.699064 -0.102750 -5.722392 -78.009216 22.958822 99.620097 78.636096 95.413611 -16.129416 -21.871051 2.724804 -0.315609 -1.227732 -0.142194
